<mxfile host="app.diagrams.net" modified="2024-06-06T15:09:58.390Z" agent="Mozilla/5.0 (X11; Linux x86_64; rv:109.0) Gecko/20100101 Firefox/115.0" etag="fY4C3cFWcX0qQaT9WaZq" version="24.4.13" type="device">
  <diagram name="Page-1" id="6wDQ0zh6kTSqrW-CMUxc">
    <mxGraphModel dx="1034" dy="-85" grid="0" gridSize="10" guides="1" tooltips="1" connect="1" arrows="1" fold="1" page="0" pageScale="1" pageWidth="827" pageHeight="1169" math="0" shadow="0">
      <root>
        <mxCell id="0" />
        <mxCell id="1" parent="0" />
        <mxCell id="rMVCeF21x8GwSu0WunKX-1" value="Azure Cloud" style="fillColor=none;strokeColor=#147EBA;dashed=1;verticalAlign=top;fontStyle=0;fontColor=#147EBA;whiteSpace=wrap;html=1;" parent="1" vertex="1">
          <mxGeometry x="980" y="800" width="940" height="707" as="geometry" />
        </mxCell>
        <mxCell id="rMVCeF21x8GwSu0WunKX-2" value="Azure Virtual&lt;br&gt;Network" style="image;aspect=fixed;html=1;points=[];align=center;fontSize=12;image=img/lib/azure2/networking/Virtual_Networks_Classic.svg;" parent="1" vertex="1">
          <mxGeometry x="1038" y="821.25" width="67" height="40" as="geometry" />
        </mxCell>
        <mxCell id="rMVCeF21x8GwSu0WunKX-3" value="" style="rounded=1;arcSize=10;dashed=1;strokeColor=#F59D56;fillColor=none;gradientColor=none;dashPattern=8 4;strokeWidth=2;" parent="1" vertex="1">
          <mxGeometry x="1000" y="840" width="900" height="642" as="geometry" />
        </mxCell>
        <mxCell id="rMVCeF21x8GwSu0WunKX-4" value="" style="rounded=1;arcSize=10;dashed=1;strokeColor=#F59D56;fillColor=none;gradientColor=none;dashPattern=8 4;strokeWidth=2;" parent="1" vertex="1">
          <mxGeometry x="1320" y="880" width="560" height="190" as="geometry" />
        </mxCell>
        <mxCell id="rMVCeF21x8GwSu0WunKX-5" value="Azure Kubernetes&#xa; Master Virtual&#xa;Subnet" style="shape=image;verticalLabelPosition=bottom;labelBackgroundColor=none;verticalAlign=top;aspect=fixed;imageAspect=0;image=https://d1jnx9ba8s6j9r.cloudfront.net/blog/wp-content/uploads/2017/08/Sunet-Azure-Virtual-Networks-Edureka.png;" parent="1" vertex="1">
          <mxGeometry x="1341.6718055555557" y="865.25" width="55.118933333333324" height="29.866666666666667" as="geometry" />
        </mxCell>
        <mxCell id="rMVCeF21x8GwSu0WunKX-6" value="Kubernetes Cluster" style="fillColor=none;strokeColor=#147EBA;dashed=1;verticalAlign=top;fontStyle=0;fontColor=#147EBA;whiteSpace=wrap;html=1;" parent="1" vertex="1">
          <mxGeometry x="1630" y="889" width="260" height="552" as="geometry" />
        </mxCell>
        <mxCell id="rMVCeF21x8GwSu0WunKX-7" value="Azure VMs&lt;br&gt;Kubernetes Control Plane 1" style="image;aspect=fixed;html=1;points=[];align=left;fontSize=12;image=img/lib/azure2/compute/VM_Images_Classic.svg;labelPosition=right;verticalLabelPosition=middle;verticalAlign=middle;" parent="1" vertex="1">
          <mxGeometry x="1654" y="951.45" width="61.33333333333333" height="56.888888888888886" as="geometry" />
        </mxCell>
        <mxCell id="rMVCeF21x8GwSu0WunKX-49" style="edgeStyle=orthogonalEdgeStyle;rounded=0;orthogonalLoop=1;jettySize=auto;html=1;dashed=1;flowAnimation=1;strokeColor=#FF0000;" parent="1" edge="1">
          <mxGeometry relative="1" as="geometry">
            <mxPoint x="1222" y="966" as="sourcePoint" />
            <mxPoint x="1290" y="966" as="targetPoint" />
            <Array as="points">
              <mxPoint x="1260" y="966" />
              <mxPoint x="1260" y="966" />
            </Array>
          </mxGeometry>
        </mxCell>
        <mxCell id="rMVCeF21x8GwSu0WunKX-50" style="edgeStyle=orthogonalEdgeStyle;rounded=0;orthogonalLoop=1;jettySize=auto;html=1;dashed=1;strokeColor=#0000FF;flowAnimation=1;" parent="1" edge="1">
          <mxGeometry relative="1" as="geometry">
            <mxPoint x="1222" y="1004" as="sourcePoint" />
            <mxPoint x="1290" y="1004" as="targetPoint" />
            <Array as="points">
              <mxPoint x="1260" y="1004" />
              <mxPoint x="1260" y="1004" />
            </Array>
          </mxGeometry>
        </mxCell>
        <mxCell id="rMVCeF21x8GwSu0WunKX-61" style="edgeStyle=orthogonalEdgeStyle;rounded=0;orthogonalLoop=1;jettySize=auto;html=1;strokeColor=#FF0000;dashed=1;flowAnimation=1;" parent="1" source="rMVCeF21x8GwSu0WunKX-14" target="rMVCeF21x8GwSu0WunKX-46" edge="1">
          <mxGeometry relative="1" as="geometry">
            <Array as="points">
              <mxPoint x="1186" y="1210" />
              <mxPoint x="1297" y="1210" />
            </Array>
          </mxGeometry>
        </mxCell>
        <mxCell id="rMVCeF21x8GwSu0WunKX-14" value="Admin&lt;br&gt;Azure load&lt;br&gt;Balancer" style="image;aspect=fixed;html=1;points=[];align=center;fontSize=12;image=img/lib/azure2/networking/Load_Balancers.svg;labelPosition=center;verticalLabelPosition=top;verticalAlign=bottom;" parent="1" vertex="1">
          <mxGeometry x="1150" y="943.89" width="72" height="72" as="geometry" />
        </mxCell>
        <mxCell id="rMVCeF21x8GwSu0WunKX-15" value="Client &lt;br&gt;Public IP&lt;br&gt;Adresses" style="image;aspect=fixed;html=1;points=[];align=center;fontSize=12;image=img/lib/azure2/networking/Public_IP_Addresses_Classic.svg;" parent="1" vertex="1">
          <mxGeometry x="1028" y="1293.93" width="64" height="52" as="geometry" />
        </mxCell>
        <mxCell id="rMVCeF21x8GwSu0WunKX-16" value="Admins-Dev&amp;nbsp;&lt;br&gt;Public IP&lt;br&gt;Adresses" style="image;aspect=fixed;html=1;points=[];align=center;fontSize=12;image=img/lib/azure2/networking/Public_IP_Addresses_Classic.svg;labelPosition=center;verticalLabelPosition=bottom;verticalAlign=top;" parent="1" vertex="1">
          <mxGeometry x="1028" y="956.44" width="64" height="52" as="geometry" />
        </mxCell>
        <mxCell id="rMVCeF21x8GwSu0WunKX-17" value="Clients" style="sketch=0;outlineConnect=0;fontColor=#232F3E;gradientColor=none;fillColor=#232F3D;strokeColor=none;dashed=0;verticalLabelPosition=bottom;verticalAlign=top;align=center;html=1;fontSize=12;fontStyle=0;aspect=fixed;pointerEvents=1;shape=mxgraph.aws4.users;" parent="1" vertex="1">
          <mxGeometry x="800" y="1285.93" width="78" height="78" as="geometry" />
        </mxCell>
        <mxCell id="rMVCeF21x8GwSu0WunKX-18" value="Admins and Devs" style="sketch=0;outlineConnect=0;fontColor=#232F3E;gradientColor=none;fillColor=#FF0000;strokeColor=none;dashed=0;verticalLabelPosition=bottom;verticalAlign=top;align=center;html=1;fontSize=12;fontStyle=0;aspect=fixed;pointerEvents=1;shape=mxgraph.aws4.users;" parent="1" vertex="1">
          <mxGeometry x="800" y="940.89" width="78" height="78" as="geometry" />
        </mxCell>
        <mxCell id="rMVCeF21x8GwSu0WunKX-59" style="edgeStyle=orthogonalEdgeStyle;rounded=0;orthogonalLoop=1;jettySize=auto;html=1;dashed=1;flowAnimation=1;strokeColor=#FF0000;" parent="1" edge="1">
          <mxGeometry relative="1" as="geometry">
            <mxPoint x="1406.0000000000005" y="961.3809523809523" as="sourcePoint" />
            <mxPoint x="1493.56" y="961.3809523809523" as="targetPoint" />
            <Array as="points">
              <mxPoint x="1480" y="961" />
              <mxPoint x="1480" y="961" />
            </Array>
          </mxGeometry>
        </mxCell>
        <mxCell id="rMVCeF21x8GwSu0WunKX-19" value="Port : 22" style="text;html=1;align=center;verticalAlign=middle;whiteSpace=wrap;rounded=0;" parent="1" vertex="1">
          <mxGeometry x="1346.0000000000005" y="947.4399999999999" width="60" height="30" as="geometry" />
        </mxCell>
        <mxCell id="rMVCeF21x8GwSu0WunKX-51" style="edgeStyle=orthogonalEdgeStyle;rounded=0;orthogonalLoop=1;jettySize=auto;html=1;dashed=1;strokeColor=#0000FF;flowAnimation=1;" parent="1" source="rMVCeF21x8GwSu0WunKX-20" target="rMVCeF21x8GwSu0WunKX-47" edge="1">
          <mxGeometry relative="1" as="geometry">
            <Array as="points">
              <mxPoint x="1470" y="1000" />
              <mxPoint x="1470" y="1000" />
            </Array>
          </mxGeometry>
        </mxCell>
        <mxCell id="rMVCeF21x8GwSu0WunKX-20" value="Port : 6443" style="text;html=1;align=center;verticalAlign=middle;whiteSpace=wrap;rounded=0;" parent="1" vertex="1">
          <mxGeometry x="1341.67" y="985.8900000000001" width="68.67" height="30" as="geometry" />
        </mxCell>
        <mxCell id="rMVCeF21x8GwSu0WunKX-25" style="edgeStyle=orthogonalEdgeStyle;rounded=0;orthogonalLoop=1;jettySize=auto;html=1;entryX=-0.031;entryY=0.242;entryDx=0;entryDy=0;entryPerimeter=0;dashed=1;strokeColor=#FF0000;flowAnimation=1;" parent="1" source="rMVCeF21x8GwSu0WunKX-18" target="rMVCeF21x8GwSu0WunKX-16" edge="1">
          <mxGeometry relative="1" as="geometry">
            <Array as="points">
              <mxPoint x="920" y="969" />
              <mxPoint x="920" y="969" />
            </Array>
          </mxGeometry>
        </mxCell>
        <mxCell id="rMVCeF21x8GwSu0WunKX-26" value="SSH" style="edgeLabel;html=1;align=center;verticalAlign=middle;resizable=0;points=[];" parent="rMVCeF21x8GwSu0WunKX-25" vertex="1" connectable="0">
          <mxGeometry x="-0.2839" y="1" relative="1" as="geometry">
            <mxPoint x="9" y="-9" as="offset" />
          </mxGeometry>
        </mxCell>
        <mxCell id="rMVCeF21x8GwSu0WunKX-27" style="edgeStyle=orthogonalEdgeStyle;rounded=0;orthogonalLoop=1;jettySize=auto;html=1;entryX=-0.078;entryY=0.876;entryDx=0;entryDy=0;entryPerimeter=0;dashed=1;strokeColor=#0000FF;flowAnimation=1;" parent="1" source="rMVCeF21x8GwSu0WunKX-18" target="rMVCeF21x8GwSu0WunKX-16" edge="1">
          <mxGeometry relative="1" as="geometry">
            <Array as="points">
              <mxPoint x="910" y="1002" />
              <mxPoint x="910" y="1002" />
            </Array>
          </mxGeometry>
        </mxCell>
        <mxCell id="rMVCeF21x8GwSu0WunKX-28" value="kubectl" style="edgeLabel;html=1;align=center;verticalAlign=middle;resizable=0;points=[];" parent="rMVCeF21x8GwSu0WunKX-27" vertex="1" connectable="0">
          <mxGeometry x="-0.0345" y="-3" relative="1" as="geometry">
            <mxPoint x="-8" y="6" as="offset" />
          </mxGeometry>
        </mxCell>
        <mxCell id="rMVCeF21x8GwSu0WunKX-52" style="edgeStyle=orthogonalEdgeStyle;rounded=0;orthogonalLoop=1;jettySize=auto;html=1;dashed=1;flowAnimation=1;" parent="1" edge="1">
          <mxGeometry relative="1" as="geometry">
            <Array as="points">
              <mxPoint x="1260" y="1319.93" />
              <mxPoint x="1260" y="1319.93" />
            </Array>
            <mxPoint x="1222" y="1319.9" as="sourcePoint" />
            <mxPoint x="1290" y="1319.9" as="targetPoint" />
          </mxGeometry>
        </mxCell>
        <mxCell id="rMVCeF21x8GwSu0WunKX-31" value="Azure load&lt;br&gt;Balancer&lt;br&gt;Create by &lt;br&gt;Kubernetes" style="image;aspect=fixed;html=1;points=[];align=center;fontSize=12;image=img/lib/azure2/networking/Load_Balancers.svg;" parent="1" vertex="1">
          <mxGeometry x="1150" y="1283.93" width="72" height="72" as="geometry" />
        </mxCell>
        <mxCell id="rMVCeF21x8GwSu0WunKX-32" style="edgeStyle=orthogonalEdgeStyle;rounded=0;orthogonalLoop=1;jettySize=auto;html=1;entryX=-0.056;entryY=0.307;entryDx=0;entryDy=0;entryPerimeter=0;dashed=1;flowAnimation=1;strokeColor=#FF0000;" parent="1" source="rMVCeF21x8GwSu0WunKX-16" target="rMVCeF21x8GwSu0WunKX-14" edge="1">
          <mxGeometry relative="1" as="geometry">
            <Array as="points">
              <mxPoint x="1110" y="966" />
              <mxPoint x="1110" y="966" />
            </Array>
          </mxGeometry>
        </mxCell>
        <mxCell id="rMVCeF21x8GwSu0WunKX-33" style="edgeStyle=orthogonalEdgeStyle;rounded=0;orthogonalLoop=1;jettySize=auto;html=1;entryX=-0.056;entryY=0.835;entryDx=0;entryDy=0;entryPerimeter=0;dashed=1;strokeColor=#0000FF;flowAnimation=1;" parent="1" source="rMVCeF21x8GwSu0WunKX-16" target="rMVCeF21x8GwSu0WunKX-14" edge="1">
          <mxGeometry relative="1" as="geometry">
            <Array as="points">
              <mxPoint x="1100" y="1004" />
              <mxPoint x="1100" y="1004" />
            </Array>
          </mxGeometry>
        </mxCell>
        <mxCell id="rMVCeF21x8GwSu0WunKX-34" style="edgeStyle=orthogonalEdgeStyle;rounded=0;orthogonalLoop=1;jettySize=auto;html=1;entryX=-0.078;entryY=0.596;entryDx=0;entryDy=0;entryPerimeter=0;dashed=1;flowAnimation=1;" parent="1" source="rMVCeF21x8GwSu0WunKX-17" target="rMVCeF21x8GwSu0WunKX-15" edge="1">
          <mxGeometry relative="1" as="geometry" />
        </mxCell>
        <mxCell id="rMVCeF21x8GwSu0WunKX-35" value="DNS" style="text;html=1;align=center;verticalAlign=middle;resizable=0;points=[];autosize=1;strokeColor=none;fillColor=none;" parent="1" vertex="1">
          <mxGeometry x="906" y="1301.93" width="50" height="30" as="geometry" />
        </mxCell>
        <mxCell id="rMVCeF21x8GwSu0WunKX-36" style="edgeStyle=orthogonalEdgeStyle;rounded=0;orthogonalLoop=1;jettySize=auto;html=1;entryX=-0.014;entryY=0.5;entryDx=0;entryDy=0;entryPerimeter=0;dashed=1;flowAnimation=1;" parent="1" source="rMVCeF21x8GwSu0WunKX-15" target="rMVCeF21x8GwSu0WunKX-31" edge="1">
          <mxGeometry relative="1" as="geometry" />
        </mxCell>
        <mxCell id="rMVCeF21x8GwSu0WunKX-37" value="" style="rounded=1;arcSize=10;dashed=1;strokeColor=#F59D56;fillColor=none;gradientColor=none;dashPattern=8 4;strokeWidth=2;" parent="1" vertex="1">
          <mxGeometry x="1320" y="1158" width="560" height="292.93" as="geometry" />
        </mxCell>
        <mxCell id="rMVCeF21x8GwSu0WunKX-38" value="Azure Kubernetes&#xa; Worker Virtual&#xa;Subnet" style="shape=image;verticalLabelPosition=bottom;labelBackgroundColor=none;verticalAlign=top;aspect=fixed;imageAspect=0;image=https://d1jnx9ba8s6j9r.cloudfront.net/blog/wp-content/uploads/2017/08/Sunet-Azure-Virtual-Networks-Edureka.png;" parent="1" vertex="1">
          <mxGeometry x="1346.0018055555556" y="1141.07" width="55.118933333333324" height="29.866666666666667" as="geometry" />
        </mxCell>
        <mxCell id="rMVCeF21x8GwSu0WunKX-39" value="Azure VMs&lt;br&gt;Kubernetes Worker node 2" style="image;aspect=fixed;html=1;points=[];align=left;fontSize=12;image=img/lib/azure2/compute/VM_Images_Classic.svg;labelPosition=right;verticalLabelPosition=middle;verticalAlign=middle;" parent="1" vertex="1">
          <mxGeometry x="1670" y="1351.93" width="61.33333333333333" height="56.888888888888886" as="geometry" />
        </mxCell>
        <mxCell id="rMVCeF21x8GwSu0WunKX-42" value="Azure VMs&lt;br&gt;Kubernetes Worker node 1" style="image;aspect=fixed;html=1;points=[];align=left;fontSize=12;image=img/lib/azure2/compute/VM_Images_Classic.svg;labelPosition=right;verticalLabelPosition=middle;verticalAlign=middle;" parent="1" vertex="1">
          <mxGeometry x="1670" y="1237.04" width="61.33333333333333" height="56.888888888888886" as="geometry" />
        </mxCell>
        <mxCell id="rMVCeF21x8GwSu0WunKX-62" style="edgeStyle=orthogonalEdgeStyle;rounded=0;orthogonalLoop=1;jettySize=auto;html=1;strokeColor=#FF0000;dashed=1;flowAnimation=1;" parent="1" source="rMVCeF21x8GwSu0WunKX-43" target="rMVCeF21x8GwSu0WunKX-48" edge="1">
          <mxGeometry relative="1" as="geometry">
            <Array as="points">
              <mxPoint x="1440" y="1296.93" />
              <mxPoint x="1440" y="1250.93" />
            </Array>
          </mxGeometry>
        </mxCell>
        <mxCell id="rMVCeF21x8GwSu0WunKX-63" style="edgeStyle=orthogonalEdgeStyle;rounded=0;orthogonalLoop=1;jettySize=auto;html=1;strokeColor=#FF0000;dashed=1;flowAnimation=1;" parent="1" source="rMVCeF21x8GwSu0WunKX-43" target="rMVCeF21x8GwSu0WunKX-54" edge="1">
          <mxGeometry relative="1" as="geometry">
            <Array as="points">
              <mxPoint x="1440" y="1296.93" />
              <mxPoint x="1440" y="1360.93" />
            </Array>
          </mxGeometry>
        </mxCell>
        <mxCell id="rMVCeF21x8GwSu0WunKX-43" value="Port : 22" style="text;html=1;align=center;verticalAlign=middle;whiteSpace=wrap;rounded=0;" parent="1" vertex="1">
          <mxGeometry x="1346.01" y="1281.93" width="63.99" height="30" as="geometry" />
        </mxCell>
        <mxCell id="rMVCeF21x8GwSu0WunKX-53" style="edgeStyle=orthogonalEdgeStyle;rounded=0;orthogonalLoop=1;jettySize=auto;html=1;dashed=1;flowAnimation=1;" parent="1" source="rMVCeF21x8GwSu0WunKX-44" target="rMVCeF21x8GwSu0WunKX-48" edge="1">
          <mxGeometry relative="1" as="geometry">
            <Array as="points">
              <mxPoint x="1450" y="1334.93" />
              <mxPoint x="1450" y="1280.93" />
            </Array>
          </mxGeometry>
        </mxCell>
        <mxCell id="rMVCeF21x8GwSu0WunKX-56" style="edgeStyle=orthogonalEdgeStyle;rounded=0;orthogonalLoop=1;jettySize=auto;html=1;flowAnimation=1;dashed=1;" parent="1" source="rMVCeF21x8GwSu0WunKX-44" target="rMVCeF21x8GwSu0WunKX-54" edge="1">
          <mxGeometry relative="1" as="geometry">
            <Array as="points">
              <mxPoint x="1450" y="1334.93" />
              <mxPoint x="1450" y="1390.93" />
            </Array>
          </mxGeometry>
        </mxCell>
        <mxCell id="rMVCeF21x8GwSu0WunKX-44" value="Port : 80,443" style="text;html=1;align=center;verticalAlign=middle;whiteSpace=wrap;rounded=0;" parent="1" vertex="1">
          <mxGeometry x="1337.34" y="1319.93" width="82.66" height="30" as="geometry" />
        </mxCell>
        <mxCell id="rMVCeF21x8GwSu0WunKX-45" value="Azure Virtual Subnet Master &lt;br&gt;Network Security Group" style="image;aspect=fixed;html=1;points=[];align=center;fontSize=12;image=img/lib/azure2/networking/Network_Security_Groups.svg;" parent="1" vertex="1">
          <mxGeometry x="1290" y="945.89" width="56.00000000000001" height="68" as="geometry" />
        </mxCell>
        <mxCell id="rMVCeF21x8GwSu0WunKX-46" value="Azure Virtual Subnet Worker&lt;br&gt;Network Security Group" style="image;aspect=fixed;html=1;points=[];align=center;fontSize=12;image=img/lib/azure2/networking/Network_Security_Groups.svg;" parent="1" vertex="1">
          <mxGeometry x="1290" y="1288.93" width="56.00000000000001" height="68" as="geometry" />
        </mxCell>
        <mxCell id="rMVCeF21x8GwSu0WunKX-58" style="edgeStyle=orthogonalEdgeStyle;rounded=0;orthogonalLoop=1;jettySize=auto;html=1;dashed=1;flowAnimation=1;strokeColor=#0000FF;" parent="1" source="rMVCeF21x8GwSu0WunKX-47" target="rMVCeF21x8GwSu0WunKX-7" edge="1">
          <mxGeometry relative="1" as="geometry">
            <Array as="points">
              <mxPoint x="1590" y="1000" />
              <mxPoint x="1590" y="1000" />
            </Array>
          </mxGeometry>
        </mxCell>
        <mxCell id="rMVCeF21x8GwSu0WunKX-60" style="edgeStyle=orthogonalEdgeStyle;rounded=0;orthogonalLoop=1;jettySize=auto;html=1;strokeColor=#FF0000;dashed=1;flowAnimation=1;" parent="1" source="rMVCeF21x8GwSu0WunKX-47" target="rMVCeF21x8GwSu0WunKX-7" edge="1">
          <mxGeometry relative="1" as="geometry">
            <Array as="points">
              <mxPoint x="1590" y="960" />
              <mxPoint x="1590" y="960" />
            </Array>
          </mxGeometry>
        </mxCell>
        <mxCell id="rMVCeF21x8GwSu0WunKX-47" value="Control Plane &lt;br&gt;Network Interfaces" style="image;aspect=fixed;html=1;points=[];align=center;fontSize=12;image=img/lib/azure2/networking/Network_Interfaces.svg;" parent="1" vertex="1">
          <mxGeometry x="1493.56" y="945" width="68" height="60" as="geometry" />
        </mxCell>
        <mxCell id="rMVCeF21x8GwSu0WunKX-55" style="edgeStyle=orthogonalEdgeStyle;rounded=0;orthogonalLoop=1;jettySize=auto;html=1;dashed=1;flowAnimation=1;" parent="1" source="rMVCeF21x8GwSu0WunKX-48" target="rMVCeF21x8GwSu0WunKX-42" edge="1">
          <mxGeometry relative="1" as="geometry">
            <Array as="points">
              <mxPoint x="1590" y="1280.93" />
              <mxPoint x="1590" y="1280.93" />
            </Array>
          </mxGeometry>
        </mxCell>
        <mxCell id="rMVCeF21x8GwSu0WunKX-65" style="edgeStyle=orthogonalEdgeStyle;rounded=0;orthogonalLoop=1;jettySize=auto;html=1;strokeColor=#FF0000;dashed=1;flowAnimation=1;" parent="1" source="rMVCeF21x8GwSu0WunKX-48" target="rMVCeF21x8GwSu0WunKX-42" edge="1">
          <mxGeometry relative="1" as="geometry">
            <Array as="points">
              <mxPoint x="1620" y="1250.93" />
              <mxPoint x="1620" y="1250.93" />
            </Array>
          </mxGeometry>
        </mxCell>
        <mxCell id="rMVCeF21x8GwSu0WunKX-48" value="Worker node 1&lt;br&gt;Network Interfaces" style="image;aspect=fixed;html=1;points=[];align=center;fontSize=12;image=img/lib/azure2/networking/Network_Interfaces.svg;" parent="1" vertex="1">
          <mxGeometry x="1493.56" y="1233.93" width="68" height="60" as="geometry" />
        </mxCell>
        <mxCell id="rMVCeF21x8GwSu0WunKX-57" style="edgeStyle=orthogonalEdgeStyle;rounded=0;orthogonalLoop=1;jettySize=auto;html=1;dashed=1;flowAnimation=1;" parent="1" source="rMVCeF21x8GwSu0WunKX-54" target="rMVCeF21x8GwSu0WunKX-39" edge="1">
          <mxGeometry relative="1" as="geometry">
            <Array as="points">
              <mxPoint x="1590" y="1400.93" />
              <mxPoint x="1590" y="1400.93" />
            </Array>
          </mxGeometry>
        </mxCell>
        <mxCell id="rMVCeF21x8GwSu0WunKX-66" style="edgeStyle=orthogonalEdgeStyle;rounded=0;orthogonalLoop=1;jettySize=auto;html=1;strokeColor=#FF0000;dashed=1;flowAnimation=1;" parent="1" source="rMVCeF21x8GwSu0WunKX-54" target="rMVCeF21x8GwSu0WunKX-39" edge="1">
          <mxGeometry relative="1" as="geometry">
            <Array as="points">
              <mxPoint x="1620" y="1360.93" />
              <mxPoint x="1620" y="1360.93" />
            </Array>
          </mxGeometry>
        </mxCell>
        <mxCell id="rMVCeF21x8GwSu0WunKX-54" value="Worker node 2&lt;br&gt;Network Interfaces" style="image;aspect=fixed;html=1;points=[];align=center;fontSize=12;image=img/lib/azure2/networking/Network_Interfaces.svg;" parent="1" vertex="1">
          <mxGeometry x="1493.56" y="1345.93" width="68" height="60" as="geometry" />
        </mxCell>
        <mxCell id="33eF88yp3RpWiUMnkxEr-1" value="route table" style="image;aspect=fixed;html=1;points=[];align=center;fontSize=12;image=img/lib/azure2/networking/Route_Tables.svg;" parent="1" vertex="1">
          <mxGeometry x="1578" y="1125" width="64" height="62" as="geometry" />
        </mxCell>
        <mxCell id="r331iH2xHyALAX81j_Qr-1" value="Kubernetes Cluster" style="fillColor=none;strokeColor=#147EBA;dashed=1;verticalAlign=top;fontStyle=0;fontColor=#147EBA;whiteSpace=wrap;html=1;" vertex="1" parent="1">
          <mxGeometry x="2156" y="820" width="1356" height="572" as="geometry" />
        </mxCell>
        <mxCell id="r331iH2xHyALAX81j_Qr-3" value="&lt;div&gt;kubernetes_dashboard_namespace&lt;br&gt;&lt;/div&gt;" style="aspect=fixed;sketch=0;html=1;dashed=0;whitespace=wrap;verticalLabelPosition=bottom;verticalAlign=top;fillColor=#2875E2;strokeColor=#ffffff;points=[[0.005,0.63,0],[0.1,0.2,0],[0.9,0.2,0],[0.5,0,0],[0.995,0.63,0],[0.72,0.99,0],[0.5,1,0],[0.28,0.99,0]];shape=mxgraph.kubernetes.icon2;prIcon=ns" vertex="1" parent="1">
          <mxGeometry x="2736" y="1308.93" width="50" height="48" as="geometry" />
        </mxCell>
        <mxCell id="r331iH2xHyALAX81j_Qr-6" value="" style="fillColor=#dae8fc;strokeColor=#6c8ebf;dashed=1;verticalAlign=top;fontStyle=0;whiteSpace=wrap;html=1;" vertex="1" parent="1">
          <mxGeometry x="2168" y="855.93" width="218" height="362.07" as="geometry" />
        </mxCell>
        <mxCell id="r331iH2xHyALAX81j_Qr-5" value="nginx_ingress_controller_namespace" style="aspect=fixed;sketch=0;html=1;dashed=0;whitespace=wrap;verticalLabelPosition=bottom;verticalAlign=top;fillColor=#2875E2;strokeColor=#ffffff;points=[[0.005,0.63,0],[0.1,0.2,0],[0.9,0.2,0],[0.5,0,0],[0.995,0.63,0],[0.72,0.99,0],[0.5,1,0],[0.28,0.99,0]];shape=mxgraph.kubernetes.icon2;prIcon=ns" vertex="1" parent="1">
          <mxGeometry x="2251" y="829.93" width="50" height="48" as="geometry" />
        </mxCell>
        <mxCell id="r331iH2xHyALAX81j_Qr-7" value="nginx_ingress_controller_svc" style="aspect=fixed;sketch=0;html=1;dashed=0;whitespace=wrap;verticalLabelPosition=bottom;verticalAlign=top;fillColor=#2875E2;strokeColor=#ffffff;points=[[0.005,0.63,0],[0.1,0.2,0],[0.9,0.2,0],[0.5,0,0],[0.995,0.63,0],[0.72,0.99,0],[0.5,1,0],[0.28,0.99,0]];shape=mxgraph.kubernetes.icon2;prIcon=svc" vertex="1" parent="1">
          <mxGeometry x="2243" y="929.44" width="50" height="48" as="geometry" />
        </mxCell>
        <mxCell id="r331iH2xHyALAX81j_Qr-8" value="nginx_ingress_controller_pod" style="aspect=fixed;sketch=0;html=1;dashed=0;whitespace=wrap;verticalLabelPosition=bottom;verticalAlign=top;fillColor=#2875E2;strokeColor=#ffffff;points=[[0.005,0.63,0],[0.1,0.2,0],[0.9,0.2,0],[0.5,0,0],[0.995,0.63,0],[0.72,0.99,0],[0.5,1,0],[0.28,0.99,0]];shape=mxgraph.kubernetes.icon2;prIcon=pod" vertex="1" parent="1">
          <mxGeometry x="2243" y="1035" width="50" height="48" as="geometry" />
        </mxCell>
        <mxCell id="r331iH2xHyALAX81j_Qr-9" value="&lt;div&gt;nginx_ingress_controller_deploy&lt;/div&gt;" style="aspect=fixed;sketch=0;html=1;dashed=0;whitespace=wrap;verticalLabelPosition=bottom;verticalAlign=top;fillColor=#2875E2;strokeColor=#ffffff;points=[[0.005,0.63,0],[0.1,0.2,0],[0.9,0.2,0],[0.5,0,0],[0.995,0.63,0],[0.72,0.99,0],[0.5,1,0],[0.28,0.99,0]];shape=mxgraph.kubernetes.icon2;prIcon=deploy" vertex="1" parent="1">
          <mxGeometry x="2243" y="1141" width="50" height="48" as="geometry" />
        </mxCell>
        <mxCell id="r331iH2xHyALAX81j_Qr-10" style="edgeStyle=orthogonalEdgeStyle;rounded=0;orthogonalLoop=1;jettySize=auto;html=1;entryX=0.5;entryY=0;entryDx=0;entryDy=0;entryPerimeter=0;" edge="1" parent="1" source="r331iH2xHyALAX81j_Qr-7" target="r331iH2xHyALAX81j_Qr-8">
          <mxGeometry relative="1" as="geometry" />
        </mxCell>
        <mxCell id="r331iH2xHyALAX81j_Qr-11" style="edgeStyle=orthogonalEdgeStyle;rounded=0;orthogonalLoop=1;jettySize=auto;html=1;entryX=0.5;entryY=0;entryDx=0;entryDy=0;entryPerimeter=0;startArrow=classic;startFill=1;endArrow=none;endFill=0;" edge="1" parent="1" source="r331iH2xHyALAX81j_Qr-8" target="r331iH2xHyALAX81j_Qr-9">
          <mxGeometry relative="1" as="geometry" />
        </mxCell>
        <mxCell id="r331iH2xHyALAX81j_Qr-13" value="" style="fillColor=#dae8fc;strokeColor=#6c8ebf;dashed=1;verticalAlign=top;fontStyle=0;whiteSpace=wrap;html=1;" vertex="1" parent="1">
          <mxGeometry x="2533" y="866" width="417" height="348" as="geometry" />
        </mxCell>
        <mxCell id="r331iH2xHyALAX81j_Qr-4" value="sample_app_namespace" style="aspect=fixed;sketch=0;html=1;dashed=0;whitespace=wrap;verticalLabelPosition=bottom;verticalAlign=top;fillColor=#2875E2;strokeColor=#ffffff;points=[[0.005,0.63,0],[0.1,0.2,0],[0.9,0.2,0],[0.5,0,0],[0.995,0.63,0],[0.72,0.99,0],[0.5,1,0],[0.28,0.99,0]];shape=mxgraph.kubernetes.icon2;prIcon=ns" vertex="1" parent="1">
          <mxGeometry x="2617" y="844" width="50" height="48" as="geometry" />
        </mxCell>
        <mxCell id="r331iH2xHyALAX81j_Qr-26" style="edgeStyle=orthogonalEdgeStyle;rounded=0;orthogonalLoop=1;jettySize=auto;html=1;entryX=0.5;entryY=0;entryDx=0;entryDy=0;" edge="1" parent="1" source="r331iH2xHyALAX81j_Qr-20" target="r331iH2xHyALAX81j_Qr-21">
          <mxGeometry relative="1" as="geometry" />
        </mxCell>
        <mxCell id="r331iH2xHyALAX81j_Qr-20" value="sample_app_ingress" style="aspect=fixed;sketch=0;html=1;dashed=0;whitespace=wrap;verticalLabelPosition=bottom;verticalAlign=top;fillColor=#2875E2;strokeColor=#ffffff;points=[[0.005,0.63,0],[0.1,0.2,0],[0.9,0.2,0],[0.5,0,0],[0.995,0.63,0],[0.72,0.99,0],[0.5,1,0],[0.28,0.99,0]];shape=mxgraph.kubernetes.icon2;prIcon=ing" vertex="1" parent="1">
          <mxGeometry x="2593" y="938.4399999999999" width="50" height="48" as="geometry" />
        </mxCell>
        <mxCell id="r331iH2xHyALAX81j_Qr-21" value="/" style="rounded=0;whiteSpace=wrap;html=1;" vertex="1" parent="1">
          <mxGeometry x="2583" y="1040" width="70" height="28" as="geometry" />
        </mxCell>
        <mxCell id="r331iH2xHyALAX81j_Qr-22" value="sample_app_svc" style="aspect=fixed;sketch=0;html=1;dashed=0;whitespace=wrap;verticalLabelPosition=bottom;verticalAlign=top;fillColor=#2875E2;strokeColor=#ffffff;points=[[0.005,0.63,0],[0.1,0.2,0],[0.9,0.2,0],[0.5,0,0],[0.995,0.63,0],[0.72,0.99,0],[0.5,1,0],[0.28,0.99,0]];shape=mxgraph.kubernetes.icon2;prIcon=svc" vertex="1" parent="1">
          <mxGeometry x="2736" y="1023.03" width="50" height="48" as="geometry" />
        </mxCell>
        <mxCell id="r331iH2xHyALAX81j_Qr-23" value="sample_app_pod" style="aspect=fixed;sketch=0;html=1;dashed=0;whitespace=wrap;verticalLabelPosition=bottom;verticalAlign=top;fillColor=#2875E2;strokeColor=#ffffff;points=[[0.005,0.63,0],[0.1,0.2,0],[0.9,0.2,0],[0.5,0,0],[0.995,0.63,0],[0.72,0.99,0],[0.5,1,0],[0.28,0.99,0]];shape=mxgraph.kubernetes.icon2;prIcon=pod" vertex="1" parent="1">
          <mxGeometry x="2855" y="1023.0300000000001" width="50" height="48" as="geometry" />
        </mxCell>
        <mxCell id="r331iH2xHyALAX81j_Qr-24" value="sample_app_deploy" style="aspect=fixed;sketch=0;html=1;dashed=0;whitespace=wrap;verticalLabelPosition=bottom;verticalAlign=top;fillColor=#2875E2;strokeColor=#ffffff;points=[[0.005,0.63,0],[0.1,0.2,0],[0.9,0.2,0],[0.5,0,0],[0.995,0.63,0],[0.72,0.99,0],[0.5,1,0],[0.28,0.99,0]];shape=mxgraph.kubernetes.icon2;prIcon=deploy" vertex="1" parent="1">
          <mxGeometry x="2855" y="908.44" width="50" height="48" as="geometry" />
        </mxCell>
        <mxCell id="r331iH2xHyALAX81j_Qr-25" value="sample_app_HPA" style="aspect=fixed;sketch=0;html=1;dashed=0;whitespace=wrap;verticalLabelPosition=bottom;verticalAlign=top;fillColor=#2875E2;strokeColor=#ffffff;points=[[0.005,0.63,0],[0.1,0.2,0],[0.9,0.2,0],[0.5,0,0],[0.995,0.63,0],[0.72,0.99,0],[0.5,1,0],[0.28,0.99,0]];shape=mxgraph.kubernetes.icon2;prIcon=hpa" vertex="1" parent="1">
          <mxGeometry x="2855" y="1129.5" width="50" height="48" as="geometry" />
        </mxCell>
        <mxCell id="r331iH2xHyALAX81j_Qr-27" style="edgeStyle=orthogonalEdgeStyle;rounded=0;orthogonalLoop=1;jettySize=auto;html=1;entryX=0.005;entryY=0.63;entryDx=0;entryDy=0;entryPerimeter=0;" edge="1" parent="1" source="r331iH2xHyALAX81j_Qr-21" target="r331iH2xHyALAX81j_Qr-22">
          <mxGeometry relative="1" as="geometry" />
        </mxCell>
        <mxCell id="r331iH2xHyALAX81j_Qr-29" style="edgeStyle=orthogonalEdgeStyle;rounded=0;orthogonalLoop=1;jettySize=auto;html=1;exitX=0.995;exitY=0.63;exitDx=0;exitDy=0;exitPerimeter=0;entryX=0.005;entryY=0.63;entryDx=0;entryDy=0;entryPerimeter=0;" edge="1" parent="1" source="r331iH2xHyALAX81j_Qr-22" target="r331iH2xHyALAX81j_Qr-23">
          <mxGeometry relative="1" as="geometry" />
        </mxCell>
        <mxCell id="r331iH2xHyALAX81j_Qr-30" style="edgeStyle=orthogonalEdgeStyle;rounded=0;orthogonalLoop=1;jettySize=auto;html=1;entryX=0.5;entryY=0;entryDx=0;entryDy=0;entryPerimeter=0;startArrow=classic;startFill=1;endArrow=none;endFill=0;" edge="1" parent="1" source="r331iH2xHyALAX81j_Qr-24" target="r331iH2xHyALAX81j_Qr-23">
          <mxGeometry relative="1" as="geometry" />
        </mxCell>
        <mxCell id="r331iH2xHyALAX81j_Qr-31" style="edgeStyle=orthogonalEdgeStyle;rounded=0;orthogonalLoop=1;jettySize=auto;html=1;entryX=0.5;entryY=1;entryDx=0;entryDy=0;entryPerimeter=0;" edge="1" parent="1" source="r331iH2xHyALAX81j_Qr-25" target="r331iH2xHyALAX81j_Qr-23">
          <mxGeometry relative="1" as="geometry" />
        </mxCell>
        <mxCell id="r331iH2xHyALAX81j_Qr-32" style="edgeStyle=orthogonalEdgeStyle;rounded=0;orthogonalLoop=1;jettySize=auto;html=1;exitX=0.9;exitY=0.2;exitDx=0;exitDy=0;exitPerimeter=0;entryX=0.005;entryY=0.63;entryDx=0;entryDy=0;entryPerimeter=0;" edge="1" parent="1" source="r331iH2xHyALAX81j_Qr-8" target="r331iH2xHyALAX81j_Qr-20">
          <mxGeometry relative="1" as="geometry" />
        </mxCell>
        <mxCell id="r331iH2xHyALAX81j_Qr-33" value="" style="fillColor=#dae8fc;strokeColor=#6c8ebf;dashed=1;verticalAlign=top;fontStyle=0;whiteSpace=wrap;html=1;" vertex="1" parent="1">
          <mxGeometry x="3026" y="866" width="417" height="348" as="geometry" />
        </mxCell>
        <mxCell id="r331iH2xHyALAX81j_Qr-38" value="Mysql_DB_svc" style="aspect=fixed;sketch=0;html=1;dashed=0;whitespace=wrap;verticalLabelPosition=bottom;verticalAlign=top;fillColor=#2875E2;strokeColor=#ffffff;points=[[0.005,0.63,0],[0.1,0.2,0],[0.9,0.2,0],[0.5,0,0],[0.995,0.63,0],[0.72,0.99,0],[0.5,1,0],[0.28,0.99,0]];shape=mxgraph.kubernetes.icon2;prIcon=svc" vertex="1" parent="1">
          <mxGeometry x="3056" y="1023.0899999999999" width="50" height="48" as="geometry" />
        </mxCell>
        <mxCell id="r331iH2xHyALAX81j_Qr-39" value="Mysql_DB_pod" style="aspect=fixed;sketch=0;html=1;dashed=0;whitespace=wrap;verticalLabelPosition=bottom;verticalAlign=top;fillColor=#2875E2;strokeColor=#ffffff;points=[[0.005,0.63,0],[0.1,0.2,0],[0.9,0.2,0],[0.5,0,0],[0.995,0.63,0],[0.72,0.99,0],[0.5,1,0],[0.28,0.99,0]];shape=mxgraph.kubernetes.icon2;prIcon=pod" vertex="1" parent="1">
          <mxGeometry x="3175" y="1023.0900000000001" width="50" height="48" as="geometry" />
        </mxCell>
        <mxCell id="r331iH2xHyALAX81j_Qr-40" value="Mysql_DB_deploy" style="aspect=fixed;sketch=0;html=1;dashed=0;whitespace=wrap;verticalLabelPosition=bottom;verticalAlign=top;fillColor=#2875E2;strokeColor=#ffffff;points=[[0.005,0.63,0],[0.1,0.2,0],[0.9,0.2,0],[0.5,0,0],[0.995,0.63,0],[0.72,0.99,0],[0.5,1,0],[0.28,0.99,0]];shape=mxgraph.kubernetes.icon2;prIcon=deploy" vertex="1" parent="1">
          <mxGeometry x="3175" y="912.5" width="50" height="48" as="geometry" />
        </mxCell>
        <mxCell id="r331iH2xHyALAX81j_Qr-41" value="Mysql_DB_HPA" style="aspect=fixed;sketch=0;html=1;dashed=0;whitespace=wrap;verticalLabelPosition=bottom;verticalAlign=top;fillColor=#2875E2;strokeColor=#ffffff;points=[[0.005,0.63,0],[0.1,0.2,0],[0.9,0.2,0],[0.5,0,0],[0.995,0.63,0],[0.72,0.99,0],[0.5,1,0],[0.28,0.99,0]];shape=mxgraph.kubernetes.icon2;prIcon=hpa" vertex="1" parent="1">
          <mxGeometry x="3175" y="1128.56" width="50" height="48" as="geometry" />
        </mxCell>
        <mxCell id="r331iH2xHyALAX81j_Qr-43" style="edgeStyle=orthogonalEdgeStyle;rounded=0;orthogonalLoop=1;jettySize=auto;html=1;exitX=0.995;exitY=0.63;exitDx=0;exitDy=0;exitPerimeter=0;entryX=0.005;entryY=0.63;entryDx=0;entryDy=0;entryPerimeter=0;" edge="1" parent="1" source="r331iH2xHyALAX81j_Qr-38" target="r331iH2xHyALAX81j_Qr-39">
          <mxGeometry relative="1" as="geometry" />
        </mxCell>
        <mxCell id="r331iH2xHyALAX81j_Qr-44" style="edgeStyle=orthogonalEdgeStyle;rounded=0;orthogonalLoop=1;jettySize=auto;html=1;entryX=0.5;entryY=0;entryDx=0;entryDy=0;entryPerimeter=0;startArrow=classic;startFill=1;endArrow=none;endFill=0;" edge="1" parent="1" source="r331iH2xHyALAX81j_Qr-40" target="r331iH2xHyALAX81j_Qr-39">
          <mxGeometry relative="1" as="geometry" />
        </mxCell>
        <mxCell id="r331iH2xHyALAX81j_Qr-45" style="edgeStyle=orthogonalEdgeStyle;rounded=0;orthogonalLoop=1;jettySize=auto;html=1;entryX=0.5;entryY=1;entryDx=0;entryDy=0;entryPerimeter=0;" edge="1" parent="1" source="r331iH2xHyALAX81j_Qr-41" target="r331iH2xHyALAX81j_Qr-39">
          <mxGeometry relative="1" as="geometry" />
        </mxCell>
        <mxCell id="r331iH2xHyALAX81j_Qr-2" value="DB_namespace" style="aspect=fixed;sketch=0;html=1;dashed=0;whitespace=wrap;verticalLabelPosition=bottom;verticalAlign=top;fillColor=#2875E2;strokeColor=#ffffff;points=[[0.005,0.63,0],[0.1,0.2,0],[0.9,0.2,0],[0.5,0,0],[0.995,0.63,0],[0.72,0.99,0],[0.5,1,0],[0.28,0.99,0]];shape=mxgraph.kubernetes.icon2;prIcon=ns" vertex="1" parent="1">
          <mxGeometry x="3086" y="844.0000000000001" width="50" height="48" as="geometry" />
        </mxCell>
        <mxCell id="r331iH2xHyALAX81j_Qr-46" value="Mysql_DB_PersistentVolume" style="aspect=fixed;sketch=0;html=1;dashed=0;whitespace=wrap;verticalLabelPosition=bottom;verticalAlign=top;fillColor=#2875E2;strokeColor=#ffffff;points=[[0.005,0.63,0],[0.1,0.2,0],[0.9,0.2,0],[0.5,0,0],[0.995,0.63,0],[0.72,0.99,0],[0.5,1,0],[0.28,0.99,0]];shape=mxgraph.kubernetes.icon2;prIcon=pvc" vertex="1" parent="1">
          <mxGeometry x="3322" y="1030" width="50" height="48" as="geometry" />
        </mxCell>
        <mxCell id="r331iH2xHyALAX81j_Qr-47" style="edgeStyle=orthogonalEdgeStyle;rounded=0;orthogonalLoop=1;jettySize=auto;html=1;entryX=0.995;entryY=0.63;entryDx=0;entryDy=0;entryPerimeter=0;" edge="1" parent="1" source="r331iH2xHyALAX81j_Qr-46" target="r331iH2xHyALAX81j_Qr-39">
          <mxGeometry relative="1" as="geometry" />
        </mxCell>
        <mxCell id="r331iH2xHyALAX81j_Qr-48" style="edgeStyle=orthogonalEdgeStyle;rounded=0;orthogonalLoop=1;jettySize=auto;html=1;exitX=0.995;exitY=0.63;exitDx=0;exitDy=0;exitPerimeter=0;entryX=0.005;entryY=0.63;entryDx=0;entryDy=0;entryPerimeter=0;" edge="1" parent="1" source="r331iH2xHyALAX81j_Qr-23" target="r331iH2xHyALAX81j_Qr-38">
          <mxGeometry relative="1" as="geometry" />
        </mxCell>
        <mxCell id="r331iH2xHyALAX81j_Qr-49" value="Azure Disk" style="image;aspect=fixed;html=1;points=[];align=center;fontSize=12;image=img/lib/azure2/compute/Disks.svg;" vertex="1" parent="1">
          <mxGeometry x="3570" y="1025" width="56.99999999999999" height="56.00000000000001" as="geometry" />
        </mxCell>
        <mxCell id="r331iH2xHyALAX81j_Qr-50" style="edgeStyle=orthogonalEdgeStyle;rounded=0;orthogonalLoop=1;jettySize=auto;html=1;entryX=-0.07;entryY=0.518;entryDx=0;entryDy=0;entryPerimeter=0;" edge="1" parent="1" source="r331iH2xHyALAX81j_Qr-46" target="r331iH2xHyALAX81j_Qr-49">
          <mxGeometry relative="1" as="geometry" />
        </mxCell>
        <mxCell id="r331iH2xHyALAX81j_Qr-51" value="&lt;div&gt;kube-prometheus_namespace&lt;br&gt;&lt;/div&gt;" style="aspect=fixed;sketch=0;html=1;dashed=0;whitespace=wrap;verticalLabelPosition=bottom;verticalAlign=top;fillColor=#2875E2;strokeColor=#ffffff;points=[[0.005,0.63,0],[0.1,0.2,0],[0.9,0.2,0],[0.5,0,0],[0.995,0.63,0],[0.72,0.99,0],[0.5,1,0],[0.28,0.99,0]];shape=mxgraph.kubernetes.icon2;prIcon=ns" vertex="1" parent="1">
          <mxGeometry x="2996" y="1307.93" width="50" height="48" as="geometry" />
        </mxCell>
        <mxCell id="r331iH2xHyALAX81j_Qr-52" value="&lt;div&gt;grafana_loki_namespace&lt;br&gt;&lt;/div&gt;" style="aspect=fixed;sketch=0;html=1;dashed=0;whitespace=wrap;verticalLabelPosition=bottom;verticalAlign=top;fillColor=#2875E2;strokeColor=#ffffff;points=[[0.005,0.63,0],[0.1,0.2,0],[0.9,0.2,0],[0.5,0,0],[0.995,0.63,0],[0.72,0.99,0],[0.5,1,0],[0.28,0.99,0]];shape=mxgraph.kubernetes.icon2;prIcon=ns" vertex="1" parent="1">
          <mxGeometry x="3222" y="1301.93" width="50" height="48" as="geometry" />
        </mxCell>
        <mxCell id="r331iH2xHyALAX81j_Qr-53" style="edgeStyle=orthogonalEdgeStyle;rounded=0;orthogonalLoop=1;jettySize=auto;html=1;entryX=0.005;entryY=0.63;entryDx=0;entryDy=0;entryPerimeter=0;" edge="1" parent="1" source="r331iH2xHyALAX81j_Qr-8" target="r331iH2xHyALAX81j_Qr-3">
          <mxGeometry relative="1" as="geometry" />
        </mxCell>
        <mxCell id="r331iH2xHyALAX81j_Qr-54" style="edgeStyle=orthogonalEdgeStyle;rounded=0;orthogonalLoop=1;jettySize=auto;html=1;entryX=0.1;entryY=0.2;entryDx=0;entryDy=0;entryPerimeter=0;" edge="1" parent="1" source="r331iH2xHyALAX81j_Qr-8" target="r331iH2xHyALAX81j_Qr-51">
          <mxGeometry relative="1" as="geometry">
            <Array as="points">
              <mxPoint x="2515" y="1059" />
              <mxPoint x="2515" y="1256" />
              <mxPoint x="3001" y="1256" />
            </Array>
          </mxGeometry>
        </mxCell>
        <mxCell id="r331iH2xHyALAX81j_Qr-55" style="edgeStyle=orthogonalEdgeStyle;rounded=0;orthogonalLoop=1;jettySize=auto;html=1;entryX=0.1;entryY=0.2;entryDx=0;entryDy=0;entryPerimeter=0;" edge="1" parent="1" source="r331iH2xHyALAX81j_Qr-8" target="r331iH2xHyALAX81j_Qr-52">
          <mxGeometry relative="1" as="geometry">
            <Array as="points">
              <mxPoint x="2515" y="1059" />
              <mxPoint x="2515" y="1256" />
              <mxPoint x="3227" y="1256" />
            </Array>
          </mxGeometry>
        </mxCell>
      </root>
    </mxGraphModel>
  </diagram>
</mxfile>
